<svg xmlns="http://www.w3.org/2000/svg" width="400" height="300"><rect x="0" y="0" width="400" height="300" fill="#222222"/><path d="M26.49 219.55L26.49 83.02L58.32 83.02L58.32 137.67L74.33 137.67L98.98 83.02L132.66 83.02L99.54 151.66L134.13 219.55L100.46 219.55L74.33 166.19L58.32 166.19L58.32 219.55L26.49 219.55ZM185.28 220.47L185.28 220.47Q167.98 220.47 157.96 215.60L157.96 215.60L157.96 215.60Q147.93 210.72 143.42 199.77L143.42 199.77L143.42 199.77Q138.91 188.82 138.91 169.87L138.91 169.87L138.91 169.87Q138.91 149.82 143.42 138.87L143.42 138.87L143.42 138.87Q147.93 127.92 157.86 123.41L157.86 123.41L157.86 123.41Q167.80 118.90 185.28 118.90L185.28 118.90L185.28 118.90Q202.76 118.90 212.79 123.50L212.79 123.50L212.79 123.50Q222.82 128.10 227.32 139.14L227.32 139.14L227.32 139.14Q231.83 150.18 231.83 169.87L231.83 169.87L231.83 169.87Q231.83 189.38 227.51 200.23L227.51 200.23L227.51 200.23Q223.18 211.09 213.16 215.78L213.16 215.78L213.16 215.78Q203.13 220.47 185.28 220.47L185.28 220.47ZM185.28 195.26L185.28 195.26Q191.35 195.26 194.30 193.61L194.30 193.61L194.30 193.61Q197.24 191.95 198.62 186.52L198.62 186.52L198.62 186.52Q200 181.10 200 169.69L200 169.69L200 169.69Q200 158.28 198.62 152.94L198.62 152.94L198.62 152.94Q197.24 147.61 194.30 145.95L194.30 145.95L194.30 145.95Q191.35 144.30 185.28 144.30L185.28 144.30L185.28 144.30Q179.21 144.30 176.36 145.95L176.36 145.95L176.36 145.95Q173.50 147.61 172.12 152.85L172.12 152.85L172.12 152.85Q170.74 158.10 170.74 169.69L170.74 169.69L170.74 169.69Q170.74 181.28 172.12 186.62L172.12 186.62L172.12 186.62Q173.50 191.95 176.45 193.61L176.45 193.61L176.45 193.61Q179.39 195.26 185.28 195.26L185.28 195.26ZM249.13 219.55L249.13 83.02L308.01 83.02L308.01 83.02Q325.67 83.02 337.08 92.68L337.08 92.68L337.08 92.68Q348.49 102.34 348.49 131.05L348.49 131.05L348.49 131.05Q348.49 159.94 337.26 170.06L337.26 170.06L337.26 170.06Q326.04 180.18 309.48 180.18L309.48 180.18L309.48 180.18Q301.57 180.18 291.82 178.61L291.82 178.61L291.82 178.61Q282.06 177.05 280.96 176.86L280.96 176.86L280.96 219.55L249.13 219.55ZM280.96 151.66L304.51 151.66L304.51 151.66Q310.77 151.66 313.71 146.78L313.71 146.78L313.71 146.78Q316.66 141.90 316.66 131.23L316.66 131.23L316.66 131.23Q316.66 111.54 304.70 111.54L304.70 111.54L280.96 111.54L280.96 151.66ZM366.70 107.13L366.70 107.13Q364.86 107.13 363.76 106.02L363.76 106.02L363.76 106.02Q362.66 104.92 362.66 103.08L362.66 103.08L362.66 83.76L362.66 83.76Q362.66 79.53 366.70 79.53L366.70 79.53L391.36 79.53L391.36 79.53Q395.22 79.53 395.22 83.76L395.22 83.76L395.22 103.08L395.22 103.08Q395.22 107.13 391.36 107.13L391.36 107.13L366.70 107.13ZM363.02 219.55L363.02 120.56L394.86 120.56L394.86 219.55L363.02 219.55Z" fill="#FFFFFF"/></svg>