<svg xmlns="http://www.w3.org/2000/svg" width="1000" height="100"><path d="M414.19 84.40L414.19 16.88L429.93 16.88L429.93 43.90L437.85 43.90L450.04 16.88L466.69 16.88L450.31 50.82L467.42 84.40L450.77 84.40L437.85 58.01L429.93 58.01L429.93 84.40L414.19 84.40ZM492.72 84.85L492.72 84.85Q484.17 84.85 479.21 82.44L479.21 82.44L479.21 82.44Q474.25 80.03 472.02 74.62L472.02 74.62L472.02 74.62Q469.79 69.20 469.79 59.83L469.79 59.83L469.79 59.83Q469.79 49.91 472.02 44.49L472.02 44.49L472.02 44.49Q474.25 39.08 479.16 36.85L479.16 36.85L479.16 36.85Q484.07 34.62 492.72 34.62L492.72 34.62L492.72 34.62Q501.37 34.62 506.32 36.90L506.32 36.90L506.32 36.90Q511.28 39.17 513.51 44.63L513.51 44.63L513.51 44.63Q515.74 50.09 515.74 59.83L515.74 59.83L515.74 59.83Q515.74 69.47 513.60 74.84L513.60 74.84L513.60 74.84Q511.47 80.21 506.51 82.53L506.51 82.53L506.51 82.53Q501.55 84.85 492.72 84.85L492.72 84.85ZM492.72 72.39L492.72 72.39Q495.72 72.39 497.18 71.57L497.18 71.57L497.18 71.57Q498.63 70.75 499.32 68.06L499.32 68.06L499.32 68.06Q500 65.38 500 59.74L500 59.74L500 59.74Q500 54.09 499.32 51.46L499.32 51.46L499.32 51.46Q498.63 48.82 497.18 48.00L497.18 48.00L497.18 48.00Q495.72 47.18 492.72 47.18L492.72 47.18L492.72 47.18Q489.72 47.18 488.31 48.00L488.31 48.00L488.31 48.00Q486.90 48.82 486.21 51.41L486.21 51.41L486.21 51.41Q485.53 54.00 485.53 59.74L485.53 59.74L485.53 59.74Q485.53 65.47 486.21 68.11L486.21 68.11L486.21 68.11Q486.90 70.75 488.35 71.57L488.35 71.57L488.35 71.57Q489.81 72.39 492.72 72.39L492.72 72.39ZM524.30 84.40L524.30 16.88L553.42 16.88L553.42 16.88Q562.15 16.88 567.79 21.65L567.79 21.65L567.79 21.65Q573.44 26.43 573.44 40.63L573.44 40.63L573.44 40.63Q573.44 54.91 567.89 59.92L567.89 59.92L567.89 59.92Q562.34 64.92 554.14 64.92L554.14 64.92L554.14 64.92Q550.23 64.92 545.41 64.15L545.41 64.15L545.41 64.15Q540.59 63.38 540.04 63.29L540.04 63.29L540.04 84.40L524.30 84.40ZM540.04 50.82L551.69 50.82L551.69 50.82Q554.78 50.82 556.24 48.41L556.24 48.41L556.24 48.41Q557.69 46.00 557.69 40.72L557.69 40.72L557.69 40.72Q557.69 30.98 551.78 30.98L551.78 30.98L540.04 30.98L540.04 50.82ZM582.45 28.80L582.45 28.80Q581.54 28.80 580.99 28.25L580.99 28.25L580.99 28.25Q580.44 27.70 580.44 26.79L580.44 26.79L580.44 17.24L580.44 17.24Q580.44 15.15 582.45 15.15L582.45 15.15L594.64 15.15L594.64 15.15Q596.55 15.15 596.55 17.24L596.55 17.24L596.55 26.79L596.55 26.79Q596.55 28.80 594.64 28.80L594.64 28.80L582.45 28.80ZM580.63 84.40L580.63 35.44L596.37 35.44L596.37 84.40L580.63 84.40Z" fill="#FFFFFF"/></svg>